<svg width="24" height="24" viewBox="0 0 24 24" fill="none" xmlns="http://www.w3.org/2000/svg">
<path d="M9 22H15C20 22 22 20 22 15V9C22 4 20 2 15 2H9C4 2 2 4 2 9V15C2 20 4 22 9 22Z" stroke="#191D31" stroke-width="1.5" stroke-linecap="round" stroke-linejoin="round"/>
<path d="M15.5703 18.5V14.6" stroke="#191D31" stroke-width="1.5" stroke-miterlimit="10" stroke-linecap="round" stroke-linejoin="round"/>
<path d="M15.5703 7.45V5.5" stroke="#191D31" stroke-width="1.5" stroke-miterlimit="10" stroke-linecap="round" stroke-linejoin="round"/>
<path d="M15.5707 12.65C17.0066 12.65 18.1707 11.4859 18.1707 10.05C18.1707 8.61401 17.0066 7.44995 15.5707 7.44995C14.1348 7.44995 12.9707 8.61401 12.9707 10.05C12.9707 11.4859 14.1348 12.65 15.5707 12.65Z" stroke="#191D31" stroke-width="1.5" stroke-miterlimit="10" stroke-linecap="round" stroke-linejoin="round"/>
<path d="M8.42969 18.5V16.55" stroke="#191D31" stroke-width="1.5" stroke-miterlimit="10" stroke-linecap="round" stroke-linejoin="round"/>
<path d="M8.42969 9.4V5.5" stroke="#191D31" stroke-width="1.5" stroke-miterlimit="10" stroke-linecap="round" stroke-linejoin="round"/>
<path d="M8.43008 16.55C9.86602 16.55 11.0301 15.3859 11.0301 13.95C11.0301 12.514 9.86602 11.35 8.43008 11.35C6.99414 11.35 5.83008 12.514 5.83008 13.95C5.83008 15.3859 6.99414 16.55 8.43008 16.55Z" stroke="#191D31" stroke-width="1.5" stroke-miterlimit="10" stroke-linecap="round" stroke-linejoin="round"/>
</svg>
