<svg width="24" height="24" viewBox="0 0 24 24" fill="none" xmlns="http://www.w3.org/2000/svg">
<path d="M17.25 3H6.75C6.35218 3 5.97064 3.15804 5.68934 3.43934C5.40804 3.72064 5.25 4.10218 5.25 4.5V21C5.25072 21.1335 5.28663 21.2645 5.35411 21.3797C5.4216 21.4949 5.51827 21.5903 5.63437 21.6563C5.74561 21.7198 5.87191 21.7522 6 21.75C6.13921 21.7503 6.27568 21.7113 6.39375 21.6375L12 18.1313L17.5969 21.6375C17.7124 21.7069 17.844 21.7452 17.9788 21.7485C18.1135 21.7518 18.2468 21.72 18.3656 21.6563C18.4817 21.5903 18.5784 21.4949 18.6459 21.3797C18.7134 21.2645 18.7493 21.1335 18.75 21V4.5C18.75 4.10218 18.592 3.72064 18.3107 3.43934C18.0294 3.15804 17.6478 3 17.25 3ZM12.3937 16.6125C12.2753 16.5397 12.1391 16.5007 12 16.5C11.8578 16.4995 11.7183 16.5384 11.5969 16.6125L6.75 19.65V16.9125L12 13.6313L17.25 16.9125V19.65L12.3937 16.6125Z" fill="url(#paint0_linear_302_5034)"/>
<defs>
<linearGradient id="paint0_linear_302_5034" x1="7.8825" y1="8.12698" x2="17.7492" y2="8.73264" gradientUnits="userSpaceOnUse">
<stop stop-color="#FFB7E4"/>
<stop offset="1" stop-color="#34DBEB"/>
</linearGradient>
</defs>
</svg>
