<svg width="36" height="36" viewBox="0 0 36 36" fill="none" xmlns="http://www.w3.org/2000/svg">
<circle cx="18" cy="18" r="18" fill="#DDDDDD"/>
<path d="M22.0116 16.0456V14.3999C22.0116 12.0959 20.2013 10.2856 17.8973 10.2856C15.5933 10.2856 13.783 12.0959 13.783 14.3999V16.0456C12.3842 16.0456 11.3145 17.1154 11.3145 18.5142V24.2742C11.3145 25.6731 12.3842 26.7428 13.783 26.7428H22.0116C23.4105 26.7428 24.4802 25.6731 24.4802 24.2742V18.5142C24.4802 17.1154 23.4105 16.0456 22.0116 16.0456ZM15.4287 14.3999C15.4287 13.0011 16.4985 11.9314 17.8973 11.9314C19.2962 11.9314 20.3659 13.0011 20.3659 14.3999V16.0456H15.4287V14.3999ZM18.8025 21.3942L18.7202 21.4765V22.6285C18.7202 23.1222 18.391 23.4514 17.8973 23.4514C17.4036 23.4514 17.0745 23.1222 17.0745 22.6285V21.4765C16.5807 20.9828 16.4985 20.2422 16.9922 19.7485C17.4859 19.2548 18.2265 19.1725 18.7202 19.6662C19.2139 20.0776 19.2962 20.9005 18.8025 21.3942Z" fill="#2C2C2C"/>
</svg>
