<svg width="36" height="36" viewBox="0 0 36 36" fill="none" xmlns="http://www.w3.org/2000/svg">
<rect width="36" height="36" rx="18" fill="#CB8461"/>
<path d="M13.5 13.5H16.5V22.5H13.5V13.5Z" fill="white"/>
<path d="M22.5 22.5H19.5V13.5H22.5V22.5Z" fill="white"/>
<path fill-rule="evenodd" clip-rule="evenodd" d="M34.5 18C34.5 27.1125 27.1125 34.5 18 34.5C8.8875 34.5 1.5 27.1125 1.5 18C1.5 8.8875 8.8875 1.5 18 1.5C27.1125 1.5 34.5 8.8875 34.5 18ZM31.5 18C31.5 19.7728 31.1508 21.5283 30.4724 23.1662C29.7939 24.8041 28.7995 26.2923 27.5459 27.5459C26.2923 28.7995 24.8041 29.7939 23.1662 30.4724C21.5283 31.1508 19.7728 31.5 18 31.5C16.2272 31.5 14.4717 31.1508 12.8338 30.4724C11.1959 29.7939 9.70765 28.7995 8.45406 27.5459C7.20047 26.2923 6.20606 24.8041 5.52763 23.1662C4.84919 21.5283 4.5 19.7728 4.5 18C4.5 14.4196 5.92232 10.9858 8.45406 8.45406C10.9858 5.92232 14.4196 4.5 18 4.5C21.5804 4.5 25.0142 5.92232 27.5459 8.45406C30.0777 10.9858 31.5 14.4196 31.5 18Z" fill="#CB8461"/>
</svg>
