<svg width="36" height="36" viewBox="0 0 36 36" fill="none" xmlns="http://www.w3.org/2000/svg">
<rect x="10" y="9" width="18" height="18" fill="#232627"/>
<path d="M18 0C14.4399 0 10.9598 1.05568 7.99974 3.03355C5.03966 5.01141 2.73255 7.82263 1.37018 11.1117C0.00779912 14.4008 -0.348661 18.02 0.345873 21.5116C1.04041 25.0033 2.75474 28.2106 5.27208 30.7279C7.78943 33.2453 10.9967 34.9596 14.4884 35.6541C17.98 36.3487 21.5992 35.9922 24.8883 34.6298C28.1774 33.2674 30.9886 30.9603 32.9665 28.0003C34.9443 25.0402 36 21.5601 36 18C35.9909 13.2289 34.0915 8.65586 30.7178 5.28218C27.3441 1.90851 22.7711 0.0091488 18 0ZM24.3 19.1596L15.9923 24.6981C15.7632 24.8399 15.5002 24.9176 15.2308 24.9231C15.0024 24.9229 14.7773 24.8696 14.5731 24.7673C14.3517 24.6478 14.1671 24.4703 14.039 24.2538C13.9109 24.0373 13.8443 23.79 13.8462 23.5385V12.4615C13.8443 12.21 13.9109 11.9627 14.039 11.7462C14.1671 11.5297 14.3517 11.3522 14.5731 11.2327C14.7953 11.1202 15.043 11.0674 15.2919 11.0795C15.5407 11.0917 15.7821 11.1683 15.9923 11.3019L24.3 16.8404C24.4928 16.9662 24.6513 17.1381 24.7609 17.3406C24.8706 17.5431 24.928 17.7697 24.928 18C24.928 18.2303 24.8706 18.4569 24.7609 18.6594C24.6513 18.8619 24.4928 19.0338 24.3 19.1596Z" fill="url(#paint0_linear_302_5069)"/>
<defs>
<linearGradient id="paint0_linear_302_5069" x1="7.02" y1="9.84375" x2="33.2398" y2="12.0791" gradientUnits="userSpaceOnUse">
<stop stop-color="#FFB7E4"/>
<stop offset="1" stop-color="#34DBEB"/>
</linearGradient>
</defs>
</svg>
