<svg width="25" height="24" viewBox="0 0 25 24" fill="none" xmlns="http://www.w3.org/2000/svg">
<path d="M12.5 2.25C10.5716 2.25 8.68657 2.82183 7.08319 3.89317C5.47982 4.96451 4.23013 6.48726 3.49218 8.26884C2.75422 10.0504 2.56114 12.0108 2.93735 13.9021C3.31355 15.7934 4.24215 17.5307 5.60571 18.8943C6.96928 20.2579 8.70656 21.1865 10.5979 21.5627C12.4892 21.9389 14.4496 21.7458 16.2312 21.0078C18.0127 20.2699 19.5355 19.0202 20.6068 17.4168C21.6782 15.8134 22.25 13.9284 22.25 12C22.245 9.41566 21.2162 6.93859 19.3888 5.11118C17.5614 3.28378 15.0843 2.25496 12.5 2.25ZM15.9125 12.6281L11.4125 15.6281C11.2884 15.7049 11.1459 15.747 11 15.75C10.8763 15.7499 10.7543 15.721 10.6438 15.6656C10.5238 15.6009 10.4238 15.5047 10.3545 15.3875C10.2851 15.2702 10.249 15.1363 10.25 15V9C10.249 8.86375 10.2851 8.72979 10.3545 8.61252C10.4238 8.49525 10.5238 8.39909 10.6438 8.33438C10.7641 8.27343 10.8983 8.24485 11.0331 8.25142C11.1679 8.258 11.2986 8.29951 11.4125 8.37188L15.9125 11.3719C16.017 11.44 16.1028 11.5332 16.1622 11.6428C16.2216 11.7525 16.2527 11.8753 16.2527 12C16.2527 12.1247 16.2216 12.2475 16.1622 12.3572C16.1028 12.4668 16.017 12.56 15.9125 12.6281Z" fill="#FEFEFE"/>
</svg>
