<svg width="25" height="24" viewBox="0 0 25 24" fill="none" xmlns="http://www.w3.org/2000/svg">
<path d="M21.8473 4.52798L16.9348 21.9561C16.8528 22.2512 16.682 22.5139 16.4455 22.7085C16.209 22.9031 15.9183 23.0201 15.6129 23.0436H15.4816C15.1991 23.043 14.9225 22.9626 14.6837 22.8116C14.4448 22.6607 14.2535 22.4454 14.1316 22.1905L10.7848 15.1217C10.7519 15.0508 10.7415 14.9714 10.7549 14.8944C10.7683 14.8173 10.8049 14.7462 10.8598 14.6905L15.6691 9.8811C15.7444 9.81288 15.8051 9.73008 15.8474 9.63771C15.8897 9.54535 15.9128 9.44534 15.9153 9.34378C15.9178 9.24221 15.8997 9.14119 15.8619 9.04685C15.8242 8.95252 15.7677 8.86683 15.6959 8.79499C15.624 8.72314 15.5384 8.66665 15.444 8.62893C15.3497 8.5912 15.2487 8.57304 15.1471 8.57554C15.0455 8.57804 14.9455 8.60115 14.8532 8.64347C14.7608 8.68579 14.678 8.74644 14.6098 8.82173L9.8004 13.6405C9.74468 13.6954 9.67355 13.732 9.59649 13.7454C9.51943 13.7588 9.44012 13.7483 9.36915 13.7155L2.3379 10.3874C2.0627 10.2574 1.83166 10.0495 1.67336 9.78961C1.51506 9.52966 1.43645 9.22901 1.44727 8.92485C1.46387 8.61169 1.57881 8.31173 1.77574 8.06767C1.97267 7.82361 2.24156 7.64788 2.54415 7.56548L20.0098 2.6436C20.3153 2.55636 20.6405 2.56836 20.9388 2.67788C21.237 2.7874 21.4927 2.98877 21.6691 3.25298C21.7875 3.44073 21.8646 3.6515 21.8953 3.87132C21.926 4.09114 21.9097 4.31497 21.8473 4.52798Z" fill="#FEFEFE"/>
</svg>
