<svg width="20" height="21" viewBox="0 0 20 21" fill="none" xmlns="http://www.w3.org/2000/svg">
<path d="M13.3337 11.25V14.75C13.3337 17.6666 12.167 18.8333 9.25033 18.8333H5.75033C2.83366 18.8333 1.66699 17.6666 1.66699 14.75V11.25C1.66699 8.33329 2.83366 7.16663 5.75033 7.16663H9.25033C12.167 7.16663 13.3337 8.33329 13.3337 11.25Z" stroke="#A6A9B9" stroke-width="1.5" stroke-linecap="round" stroke-linejoin="round"/>
<path d="M18.3337 6.24996V9.74996C18.3337 12.6666 17.167 13.8333 14.2503 13.8333H13.3337V11.25C13.3337 8.33329 12.167 7.16663 9.25033 7.16663H6.66699V6.24996C6.66699 3.33329 7.83366 2.16663 10.7503 2.16663H14.2503C17.167 2.16663 18.3337 3.33329 18.3337 6.24996Z" stroke="#A6A9B9" stroke-width="1.5" stroke-linecap="round" stroke-linejoin="round"/>
</svg>
