<svg width="16" height="15" viewBox="0 0 16 15" fill="none" xmlns="http://www.w3.org/2000/svg">
<path d="M8 0C3.8675 0 0.5 3.3675 0.5 7.5C0.5 11.6325 3.8675 15 8 15C12.1325 15 15.5 11.6325 15.5 7.5C15.5 3.3675 12.1325 0 8 0ZM7.4375 4.5C7.4375 4.1925 7.6925 3.9375 8 3.9375C8.3075 3.9375 8.5625 4.1925 8.5625 4.5V8.25C8.5625 8.5575 8.3075 8.8125 8 8.8125C7.6925 8.8125 7.4375 8.5575 7.4375 8.25V4.5ZM8.69 10.785C8.6525 10.8825 8.6 10.9575 8.5325 11.0325C8.4575 11.1 8.375 11.1525 8.285 11.19C8.195 11.2275 8.0975 11.25 8 11.25C7.9025 11.25 7.805 11.2275 7.715 11.19C7.625 11.1525 7.5425 11.1 7.4675 11.0325C7.4 10.9575 7.3475 10.8825 7.31 10.785C7.2725 10.695 7.25 10.5975 7.25 10.5C7.25 10.4025 7.2725 10.305 7.31 10.215C7.3475 10.125 7.4 10.0425 7.4675 9.9675C7.5425 9.9 7.625 9.8475 7.715 9.81C7.895 9.735 8.105 9.735 8.285 9.81C8.375 9.8475 8.4575 9.9 8.5325 9.9675C8.6 10.0425 8.6525 10.125 8.69 10.215C8.7275 10.305 8.75 10.4025 8.75 10.5C8.75 10.5975 8.7275 10.695 8.69 10.785Z" fill="#FFEA7C"/>
</svg>
